<?xml version="1.0" encoding="utf-8"?>
<!-- Generator: Adobe Illustrator 26.1.0, SVG Export Plug-In . SVG Version: 6.00 Build 0)  -->
<svg version="1.1" id="Calque_1" xmlns="http://www.w3.org/2000/svg" xmlns:xlink="http://www.w3.org/1999/xlink" x="0px" y="0px"
	 viewBox="0 0 334 52" style="enable-background:new 0 0 334 52;" xml:space="preserve">
<style type="text/css">
	.st0{fill:#E21313;}
	.st1{fill:none;}
</style>
<path class="st0" d="M243,34l0.2,1.2c0,0.5-0.3,1.1-0.8,1.7c-1.3,1.7-3.5,3.8-6.5,6c-3,2.3-5.1,3.4-6.5,3.4s-2.5-0.4-3.3-1.2
	c-0.8-0.8-1.2-1.8-1.2-2.8c0-1.3,1.3-4,4-8.4c4-6.4,9-13.9,15.2-22.5c-1.3,1.3-4.8,5-10.4,10.9c-12.4,13-19.7,20.4-21.8,22.1
	c-0.3,0.3-0.9,0.4-1.5,0.4c-0.7,0-1.3-0.3-2.1-0.8c-0.7-0.5-1.1-1.2-1.1-1.8v-0.2c0.1-0.9,2-5,5.9-12.5c3.8-7.5,7.1-13.5,9.7-17.9
	c-3.8,4.2-7.7,9-11.7,14.2c-7.5,9.9-12.9,18.3-16.4,25.3c-0.3,0.7-0.7,1-1.1,1s-1.1-0.1-2-0.3c-1.8-0.5-2.7-1.3-2.7-2.6
	c0-0.7,1.5-3.3,4.5-7.8c3-4.5,6.5-9.4,10.4-14.8c3.9-5.4,8-10.5,12.3-15.4c5.8-6.8,9.6-10.3,11.3-10.3c0.3,0,0.5,0.1,0.8,0.2
	c0.2,0.1,0.4,0.2,0.5,0.2c0.1,0,0.1,0,0.2-0.1c0.3-0.3,0.8-0.5,1.6-0.5c0.8,0,1.6,0.2,2.3,0.5c0.8,0.3,1.1,0.7,1.1,1
	c0,0.2-1,2.2-3.1,5.8C224,20,219.4,28.3,217,32.8c2.2-2.7,5.4-6.3,9.6-10.8c4.2-4.5,8.6-8.9,13.1-13.4c6-5.8,9.5-8.7,10.7-8.7
	c0.5,0,1.1,0.1,1.8,0.3c1.3,0.4,2.5,0.5,3.6,0.5c0.3,0.1,0.6,0.2,0.8,0.4c0.2,0.2,0.4,0.4,0.4,0.6c0,0.2-0.1,0.4-0.2,0.5
	c-6.6,8.8-12.2,16.5-16.7,23.3c-4.5,6.7-7.3,11.3-8.4,13.6c2.1-0.4,5.3-3,9.6-7.7c0.2-0.2,0.3-0.4,0.4-0.5c0.1-0.1,0.2-0.2,0.2-0.2
	c0.3-0.4,0.6-0.2,0.8,0.8c0.1,0.5,0.1,0.9,0.2,1.1c0,0.2,0.1,0.4,0.1,0.7C243,33.7,243,33.9,243,34z"/>
<path class="st0" d="M267.8,22c0.6,0,1.2,0.3,1.9,0.8c0.7,0.5,1,1.4,1,2.5c0,1.1-0.4,2.6-1.2,4.4c-0.8,1.8-1.9,3.6-3.3,5.5
	c-1.4,1.9-2.9,3.6-4.6,5.2c-1.6,1.6-3.4,3-5.4,4c-1.9,1-3.7,1.6-5.2,1.6c-1.6,0-2.8-0.5-3.8-1.5c-0.9-1-1.4-2.4-1.4-4.1
	c0-1.8,0.4-3.7,1.3-5.9c0.9-2.1,2-4,3.4-5.6c1.4-1.6,2.8-3.1,4.4-4.4c3.3-2.7,6.2-4,8.7-4c1.1,0,2,0.3,2.5,0.8
	c0.2,0.2,0.3,0.3,0.3,0.5V22C266.8,22,267.2,22,267.8,22z M264.7,26h-0.2c-0.7,0-1.1-0.5-1.1-1.6c-1.5,0.5-3,1.3-4.7,2.6
	c-1.6,1.2-3.1,2.7-4.4,4.3c-2.6,3.3-3.9,6.2-4,8.5c0,1.1,0.4,1.7,1.3,1.7c0.8,0,2.1-0.5,3.7-1.6c1.6-1.1,3.3-2.7,4.9-4.7
	c1.6-2,2.8-3.8,3.6-5.3c0.8-1.5,1.2-2.5,1.2-3.1C265.2,26.3,265,26,264.7,26z"/>
<path class="st0" d="M298,21.7c0,1.4-0.8,3.5-2.4,6.2c-1.6,2.7-3.6,5.4-6,8.2c-2.4,2.8-5,5.2-7.8,7.2c-2.7,2-4.9,3-6.4,3
	c-0.8,0-1.6-0.3-2.3-0.9c-0.7-0.6-1-1.6-1-2.9c0-1.3,0.6-3.4,1.9-6.3c1.3-2.9,2.5-5.3,3.7-7.3c-1.1,0.8-1.7,1.2-2,1.2
	c-0.2,0-0.5-0.3-0.9-0.8c-0.3-0.5-0.5-0.9-0.5-1.2c0-0.3,0.1-0.5,0.2-0.7c4-4.5,6.8-6.7,8.5-6.7c0.7,0,1.3,0.2,1.7,0.6
	c0.5,0.4,0.7,0.9,0.7,1.5c0,0.6-0.7,2.2-2.1,4.9c-1.4,2.7-2.8,5.4-4.2,8.2c-1.4,2.7-2.1,4.5-2.1,5.2c0,0.1,0.1,0.2,0.2,0.2
	c0.5,0,2-1,4.3-3.1c2.3-2.1,4.2-4.1,5.7-5.9c1.4-1.8,2.7-3.6,3.8-5.5c1.1-1.8,1.6-3,1.6-3.6c0-0.6-0.1-1-0.4-1.4
	c-0.2-0.4-0.3-0.8-0.3-1.2c0-0.4,0.3-0.9,0.9-1.5c0.6-0.5,1.4-0.8,2.3-0.8C297,18.3,298,19.4,298,21.7z"/>
<path class="st0" d="M317.7,11.7c0,1.2-0.5,2.3-1.6,3.5c-1.1,1.2-2.2,1.7-3.4,1.7c-1.2,0-1.7-0.6-1.7-1.8c0-1.2,0.5-2.4,1.5-3.5
	c1-1.1,2.2-1.7,3.4-1.7c0.6,0,1,0.2,1.3,0.5C317.5,10.7,317.7,11.2,317.7,11.7z M312.7,38.4c0,0.6-0.1,1-0.2,1.3
	c-1,2-2.6,3.7-4.8,4.9c-2.2,1.2-4.1,1.9-5.7,1.9c-1.6,0-3-0.5-4.2-1.6c-1.2-1.1-1.7-2.2-1.7-3.3c0-1.1,0.6-2.7,1.7-4.9
	c1.1-2.1,2.2-4.1,3.4-5.9c1.1-1.8,1.7-2.8,1.7-2.9c0-0.2-0.2-0.5-0.6-0.9c-0.4-0.4-0.6-0.8-0.6-1c0-0.2,0.4-0.8,1.3-1.7
	c0.9-0.9,1.9-1.8,3.1-2.7c1.2-0.9,2.1-1.3,2.8-1.3c0.7,0,1.2,0.3,1.7,0.9c0.5,0.6,0.8,1.1,0.8,1.6s-2.4,4.9-7.3,13.2
	c-0.1,0.1-0.2,0.4-0.5,0.8c-0.3,0.4-0.5,0.8-0.6,1c-0.1,0.3-0.3,0.6-0.5,1c-0.4,0.8-0.6,1.5-0.6,2c0,0.7,0.5,1,1.4,1
	c0.9,0,1.9-0.3,2.9-0.9c1-0.7,1.9-1.4,2.6-2.1c1.9-2.1,3-3.1,3.3-3.1C312.5,35.6,312.7,36.5,312.7,38.4z"/>
<path class="st0" d="M334,22.4c0,1.3-0.5,2.5-1.6,3.5c-1.1,1-2.3,1.5-3.7,1.5c-0.4,0-0.7-0.1-0.9-0.3c-0.1-0.2-0.2-0.5-0.2-0.9
	c0-0.3,0-0.7,0.1-1c-0.7,0.2-1.5,0.6-2.4,1.1c-0.9,0.5-2,1.3-3.3,2.3c-1.3,1-2,1.7-2,2.2c0,0.2,0.2,0.2,0.7,0.2
	c0.5,0,1.2-0.2,2.2-0.5c1-0.3,1.7-0.5,2.1-0.5c0.4,0,0.7,0,0.8,0.1c0.3,0.1,0.6,0.5,0.9,0.9c0.3,0.5,0.5,0.8,0.5,1.1
	c0,0.3-0.3,0.6-0.8,1.1c-0.5,0.4-1.1,0.8-1.8,1c-0.7,0.2-1.1,0.4-1.3,0.5c-4.3,2.4-6.4,4-6.4,4.9c0,1.6,1.4,2.4,4.1,2.4
	c1.7,0,3.5-0.5,5.2-1.6c1.5-0.9,2.8-1.9,4-2.8c1.2-1,2-1.6,2.3-1.8c0.3-0.2,0.6-0.3,0.7-0.3c0.5,0,0.8,0.6,0.8,1.8
	c0,1.2-0.1,2-0.2,2.3c-0.1,0.4-0.5,0.8-1.2,1.4c-4.4,3.5-8.5,5.3-12.4,5.3c-2.1,0-3.7-0.3-5-0.9c-2.3-1-3.4-2.6-3.4-4.8
	c0-2.8,1.9-4.9,5.8-6.4c-0.8-0.3-1.3-0.8-1.5-1.3c-0.2-0.5-0.3-1.4-0.3-2.6c0-1.2,0.5-2.5,1.6-3.8c1.1-1.3,2.5-2.4,4.1-3.3
	c3.6-1.9,6.8-2.9,9.6-2.9c0.7,0,1.4,0.2,2,0.5C333.7,21.4,334,21.8,334,22.4z"/>
<rect x="24" y="12.9" class="st1" width="164" height="0"/>
</svg>
